<svg width="19" height="19" viewBox="0 0 19 19" fill="none" xmlns="http://www.w3.org/2000/svg">
<path d="M13.6095 12.0658H12.7965L12.5083 11.7879C13.5517 10.5776 14.1252 9.0325 14.1241 7.43453C14.1241 6.11147 13.7317 4.81812 12.9967 3.71803C12.2616 2.61794 11.2169 1.76052 9.99451 1.25421C8.77215 0.747894 7.42711 0.615418 6.12947 0.873536C4.83183 1.13165 3.63987 1.76877 2.70432 2.70432C1.76877 3.63987 1.13165 4.83183 0.873536 6.12947C0.615418 7.42711 0.747894 8.77215 1.25421 9.99451C1.76052 11.2169 2.61794 12.2616 3.71803 12.9967C4.81812 13.7317 6.11147 14.1241 7.43453 14.1241C9.09148 14.1241 10.6146 13.5169 11.7879 12.5083L12.0658 12.7965V13.6095L17.2115 18.745L18.745 17.2115L13.6095 12.0658ZM7.43453 12.0658C4.87193 12.0658 2.80332 9.99714 2.80332 7.43453C2.80332 4.87193 4.87193 2.80332 7.43453 2.80332C9.99714 2.80332 12.0658 4.87193 12.0658 7.43453C12.0658 9.99714 9.99714 12.0658 7.43453 12.0658Z" fill="#8B0053"/>
</svg>
