<svg width="13" height="12" viewBox="0 0 13 12" fill="none" xmlns="http://www.w3.org/2000/svg">
<path d="M6.40002 0C4.80928 0.00181127 3.28421 0.634534 2.15938 1.75936C1.03456 2.88419 0.401836 4.40926 0.400024 6C0.400024 7.60308 1.02449 9.10949 2.15794 10.2421C2.71359 10.8011 3.37465 11.2444 4.10283 11.5461C4.831 11.8479 5.61181 12.0022 6.40002 12C7.99077 11.9982 9.51584 11.3655 10.6407 10.2406C11.7655 9.11582 12.3982 7.59074 12.4 6C12.3982 4.40926 11.7655 2.88419 10.6407 1.75936C9.51584 0.634534 7.99077 0.00181127 6.40002 0ZM6.40002 0.855432C7.76396 0.857017 9.07158 1.39954 10.036 2.36399C11.0005 3.32844 11.543 4.63606 11.5446 6C11.5434 7.29353 11.0526 8.53866 10.1708 9.48503C9.58865 8.79591 8.83068 8.2774 7.97744 7.9846C8.27366 7.74438 8.51259 7.44113 8.67685 7.09694C8.8411 6.75274 8.92655 6.37625 8.92697 5.99487C8.92596 5.65761 8.85842 5.32387 8.72822 5.01277C8.59802 4.70166 8.40772 4.4193 8.16821 4.18186C7.92871 3.94442 7.64471 3.75657 7.33248 3.62907C7.02026 3.50157 6.68595 3.43692 6.3487 3.43884C6.01159 3.43984 5.67799 3.50733 5.367 3.63742C5.056 3.76752 4.77371 3.95767 4.5363 4.19699C4.29888 4.43631 4.11099 4.72011 3.98339 5.03214C3.85579 5.34416 3.79098 5.67829 3.79267 6.0154C3.79267 6.81009 4.16564 7.5124 4.73706 7.98118C3.90117 8.26607 3.15563 8.76723 2.57624 9.4337C1.72426 8.49323 1.25335 7.269 1.25546 6C1.25704 4.63606 1.79957 3.32844 2.76402 2.36399C3.72847 1.39954 5.03609 0.857017 6.40002 0.855432ZM6.37008 4.29427C7.30849 4.29427 8.07068 5.05731 8.07068 6.0154C8.06959 6.45607 7.89748 6.8791 7.59062 7.19538C7.28377 7.51165 6.86612 7.69646 6.42569 7.71086C6.40088 7.71086 6.37693 7.70573 6.35212 7.70573C6.33073 7.70573 6.3102 7.71001 6.28882 7.71086C5.84631 7.69355 5.42789 7.50482 5.12202 7.18458C4.81614 6.86434 4.64681 6.4377 4.64981 5.99487C4.64981 5.05731 5.412 4.29427 6.37008 4.29427ZM6.28796 8.56458C6.30849 8.56544 6.32902 8.57143 6.34955 8.57143H6.37008C6.3889 8.57143 6.4043 8.56544 6.42312 8.56458C7.01989 8.57501 7.60736 8.71434 8.14525 8.97302C8.68314 9.2317 9.15874 9.60363 9.53946 10.0633C8.64286 10.7638 7.53781 11.1444 6.40002 11.1446C5.23646 11.1469 4.10703 10.7515 3.199 10.024C3.5807 9.57527 4.0536 9.21305 4.58622 8.96141C5.11885 8.70978 5.69897 8.5745 6.28796 8.56458Z" fill="white"/>
</svg>
