<?xml version="1.0" encoding="UTF-8" standalone="no"?>
<svg
   id="Layer_1"
   data-name="Layer 1"
   viewBox="0 0 512 512"
   width="512"
   height="512"
   version="1.1"
   xmlns="http://www.w3.org/2000/svg"
   xmlns:svg="http://www.w3.org/2000/svg"
   xmlns:rdf="http://www.w3.org/1999/02/22-rdf-syntax-ns#"
   xmlns:cc="http://creativecommons.org/ns#"
   xmlns:dc="http://purl.org/dc/elements/1.1/">
  <metadata
     id="metadata18963">
    <rdf:RDF>
      <cc:Work
         rdf:about="">
        <dc:format>image/svg+xml</dc:format>
        <dc:type
           rdf:resource="http://purl.org/dc/dcmitype/StillImage" />
      </cc:Work>
    </rdf:RDF>
  </metadata>
  <defs
     id="defs18961" />
  <path
     d="m 85.933415,433.54144 a 5.6603045,5.6603045 0 0 0 5.639994,5.36961 h 81.198981 a 5.1338462,5.1338469 0 0 0 5.02617,-5.36961 v -23.30299 a 31.261519,31.261519 0 0 0 -31.55567,-31.39318 h -28.14078 c -17.55065,0 -32.168695,13.84253 -32.168695,31.39318 z m 10.599836,-23.30299 c 0,-11.70579 9.863119,-20.79316 21.568859,-20.79316 h 28.14078 a 20.651982,20.651977 0 0 1 20.95584,20.79316 V 428.3112 H 96.533251 Z"
     id="path18916"
     style="fill:#60023f;fill-opacity:1;stroke:#60023f;stroke-width:0.891357;stroke-miterlimit:4;stroke-dasharray:none;stroke-opacity:1" />
  <path
     d="m 155.03718,402.69495 h -8.10092 a 5.2999225,5.2999222 0 0 0 0,10.5998 h 8.10092 a 5.2999225,5.2999222 0 0 0 0,-10.5998 z"
     id="path18918"
     style="fill:#60023f;fill-opacity:1;stroke:#60023f;stroke-width:0.891357;stroke-miterlimit:4;stroke-dasharray:none;stroke-opacity:1" />
  <path
     d="m 132.30769,375.72192 a 34.921111,34.921114 0 0 0 34.89104,-34.82659 v -8.22205 a 34.891107,34.891114 0 0 0 -69.782174,0 v 8.22205 a 34.921111,34.921114 0 0 0 34.891134,34.82659 z M 108.0164,332.67328 a 24.291253,24.291253 0 0 1 48.58247,0 v 8.22205 a 24.291253,24.291253 0 0 1 -48.58247,0 z"
     id="path18920"
     style="fill:#60023f;fill-opacity:1;stroke:#60023f;stroke-width:0.891357;stroke-miterlimit:4;stroke-dasharray:none;stroke-opacity:1" />
  <path
     d="m 218.90547,438.91105 h 81.19905 c 2.92642,0 4.89181,-2.44262 4.89181,-5.36961 v -23.30299 a 31.147572,31.147571 0 0 0 -31.42065,-31.39318 h -28.14146 a 31.147572,31.147571 0 0 0 -31.41968,31.39318 v 23.30299 c 0,2.92699 1.96455,5.36961 4.89093,5.36961 z m 5.70892,-28.6726 a 20.538028,20.538036 0 0 1 20.81983,-20.79316 h 28.14146 a 20.538919,20.538922 0 0 1 20.82097,20.79316 v 18.07275 h -69.78226 z"
     id="path18922"
     style="fill:#60023f;fill-opacity:1;stroke:#60023f;stroke-width:0.891357;stroke-miterlimit:4;stroke-dasharray:none;stroke-opacity:1" />
  <path
     d="m 282.36996,402.69495 h -8.1016 a 5.2999225,5.2999222 0 1 0 0,10.5998 h 8.1016 a 5.2999225,5.2999222 0 0 0 0,-10.5998 z"
     id="path18924"
     style="fill:#60023f;fill-opacity:1;stroke:#60023f;stroke-width:0.891357;stroke-miterlimit:4;stroke-dasharray:none;stroke-opacity:1" />
  <path
     d="m 259.50551,375.72192 a 34.921111,34.921114 0 0 0 34.89114,-34.82659 v -8.22205 a 34.89113,34.891131 0 0 0 -69.78226,0 v 8.22205 a 34.921111,34.921114 0 0 0 34.89112,34.82659 z m -24.2913,-43.04864 a 24.291267,24.291268 0 0 1 48.5825,0 v 8.22205 a 24.291267,24.291268 0 0 1 -48.5825,0 z"
     id="path18926"
     style="fill:#60023f;fill-opacity:1;stroke:#60023f;stroke-width:0.891357;stroke-miterlimit:4;stroke-dasharray:none;stroke-opacity:1" />
  <path
     d="m 347.12187,438.91105 h 81.19892 a 5.6603045,5.6603045 0 0 0 5.64009,-5.36961 v -23.30299 c 0,-17.55065 -14.61805,-31.39318 -32.1687,-31.39318 h -28.14081 a 31.261519,31.261519 0 0 0 -31.55566,31.39318 v 23.30299 a 5.1338462,5.1338469 0 0 0 5.02616,5.36961 z m 5.57367,-28.6726 a 20.651982,20.651977 0 0 1 20.95583,-20.79316 h 28.14081 c 11.70575,0 21.56887,9.08737 21.56887,20.79316 v 18.07275 h -70.66551 z"
     id="path18928"
     style="fill:#60023f;fill-opacity:1;stroke:#60023f;stroke-width:0.891357;stroke-miterlimit:4;stroke-dasharray:none;stroke-opacity:1" />
  <path
     d="m 410.58644,402.69495 h -8.10175 a 5.2999225,5.2999222 0 0 0 0,10.5998 h 8.10175 a 5.2999225,5.2999222 0 0 0 0,-10.5998 z"
     id="path18930"
     style="fill:#60023f;fill-opacity:1;stroke:#60023f;stroke-width:0.891357;stroke-miterlimit:4;stroke-dasharray:none;stroke-opacity:1" />
  <path
     d="m 387.58658,375.72192 a 34.921111,34.921114 0 0 0 34.89115,-34.82659 v -8.22205 a 34.891107,34.891109 0 0 0 -69.78219,0 v 8.22205 a 34.921111,34.921114 0 0 0 34.89104,34.82659 z m -24.2912,-43.04864 a 24.291255,24.291256 0 0 1 48.58246,0 v 8.22205 a 24.291255,24.291256 0 0 1 -48.58246,0 z"
     id="path18932"
     style="fill:#60023f;fill-opacity:1;stroke:#60023f;stroke-width:0.891357;stroke-miterlimit:4;stroke-dasharray:none;stroke-opacity:1" />
  <path
     d="M 95.687034,472.47705 H 424.20797 a 40.698007,40.698007 0 0 0 40.66901,-40.52569 V 215.06301 a 40.422411,40.422414 0 0 0 -40.6696,-40.26413 H 390.67826 V 87.822897 a 5.5074896,5.5074903 0 0 0 -1.72072,-3.717038 L 336.23585,30.634197 a 5.5295729,5.5295731 0 0 0 -3.87612,-1.582906 h -197.447 c -2.92642,0 -5.69674,2.372593 -5.69674,5.299914 V 121.79972 H 95.686135 c -22.344421,0 -40.668859,17.89696 -40.668859,40.24132 v 269.90944 a 40.698007,40.698007 0 0 0 40.669758,40.52657 z M 390.67826,185.39858 h 33.53252 a 29.825245,29.825246 0 0 1 30.06639,29.66355 v 58.28496 a 3.6701877,3.6701881 0 0 1 -1.33729,-1.15889 40.266951,40.266955 0 0 0 -28.7325,-11.7075 H 390.67826 Z M 337.6792,47.292704 l 34.78852,35.641 H 337.6792 Z M 139.81579,39.651105 h 187.26357 v 48.311338 a 5.5216222,5.5216226 0 0 0 5.28037,5.571095 h 47.71874 V 260.4807 H 261.71903 a 29.949792,29.949793 0 0 1 -20.68109,-8.46657 l -35.0007,-33.38942 A 40.24752,40.247522 0 0 0 178.02908,207.48154 H 139.81579 Z M 65.617092,162.04022 c 0,-16.50039 13.570422,-29.64062 30.069942,-29.64062 h 33.528956 v 75.08194 H 95.687034 a 40.252808,40.252809 0 0 0 -28.727289,11.69515 3.709937,3.7099367 0 0 1 -1.342653,1.15363 z m 0,85.61378 a 29.40035,29.400351 0 0 1 8.833185,-20.98317 29.732508,29.732509 0 0 1 21.236757,-8.58935 h 82.342046 a 29.620308,29.620312 0 0 1 20.68102,8.12644 l 35.00246,33.5546 a 40.417992,40.417997 0 0 0 28.00647,11.31802 h 162.49175 a 29.734265,29.734262 0 0 1 21.23321,8.60092 29.414496,29.414498 0 0 1 8.83318,20.99019 v 131.27971 a 30.085823,30.085828 0 0 1 -30.06979,29.92595 H 95.687913 A 30.085823,30.085828 0 0 1 65.617092,431.95136 Z"
     id="path18934"
     style="fill:#60023f;fill-opacity:1;stroke:#60023f;stroke-width:4.9913;stroke-miterlimit:4;stroke-dasharray:none;stroke-opacity:1" />
  <path
     d="m 351.08787,150.0659 h -7.51711 a 5.2999305,5.2999303 0 0 0 0,10.59985 h 7.51711 a 5.2999305,5.2999303 0 0 0 0,-10.59985 z"
     id="path18936"
     style="fill:#60023f;fill-opacity:1;stroke:#60023f;stroke-width:0.891357;stroke-miterlimit:4;stroke-dasharray:none;stroke-opacity:1" />
  <path
     d="m 311.79178,160.66575 a 5.2999305,5.2999303 0 0 0 0,-10.59985 h -20.48686 a 5.2999305,5.2999303 0 0 0 0,10.59985 z"
     id="path18938"
     style="fill:#60023f;fill-opacity:1;stroke:#60023f;stroke-width:0.891357;stroke-miterlimit:4;stroke-dasharray:none;stroke-opacity:1" />
  <path
     d="m 168.80637,160.66575 h 93.32511 a 5.2999305,5.2999303 0 0 0 0,-10.59985 h -93.32511 a 5.2999305,5.2999303 0 0 0 0,10.59985 z"
     id="path18940"
     style="fill:#60023f;fill-opacity:1;stroke:#60023f;stroke-width:0.891357;stroke-miterlimit:4;stroke-dasharray:none;stroke-opacity:1" />
  <path
     d="m 315.14306,127.98294 h 35.94481 a 5.2999107,5.2999104 0 0 0 0,-10.59976 h -35.94481 a 5.2999107,5.2999104 0 0 0 0,10.59976 z"
     id="path18942"
     style="fill:#60023f;fill-opacity:1;stroke:#60023f;stroke-width:0.891357;stroke-miterlimit:4;stroke-dasharray:none;stroke-opacity:1" />
  <path
     d="m 215.53666,127.98294 h 77.34147 a 5.2999107,5.2999104 0 0 0 0,-10.59976 h -77.34147 a 5.2999107,5.2999104 0 0 0 0,10.59976 z"
     id="path18944"
     style="fill:#60023f;fill-opacity:1;stroke:#60023f;stroke-width:0.891357;stroke-miterlimit:4;stroke-dasharray:none;stroke-opacity:1" />
  <path
     d="m 168.80637,127.98294 h 17.56041 a 5.2999107,5.2999104 0 0 0 0,-10.59976 h -17.56041 a 5.2999107,5.2999104 0 0 0 0,10.59976 z"
     id="path18946"
     style="fill:#60023f;fill-opacity:1;stroke:#60023f;stroke-width:0.891357;stroke-miterlimit:4;stroke-dasharray:none;stroke-opacity:1" />
  <path
     d="m 351.08787,182.7488 h -35.94481 a 5.2999227,5.2999223 0 0 0 0,10.59974 h 35.94481 a 5.2999227,5.2999223 0 1 0 0,-10.59974 z"
     id="path18948"
     style="fill:#60023f;fill-opacity:1;stroke:#60023f;stroke-width:0.891357;stroke-miterlimit:4;stroke-dasharray:none;stroke-opacity:1" />
  <path
     d="m 292.87813,182.7488 h -77.34147 a 5.2999227,5.2999223 0 0 0 0,10.59974 h 77.34147 a 5.2999227,5.2999223 0 0 0 0,-10.59974 z"
     id="path18950"
     style="fill:#60023f;fill-opacity:1;stroke:#60023f;stroke-width:0.891357;stroke-miterlimit:4;stroke-dasharray:none;stroke-opacity:1" />
  <path
     d="m 191.66668,188.04851 a 5.2999107,5.2999104 0 0 0 -5.2999,-5.29971 h -17.56041 a 5.2999227,5.2999223 0 0 0 0,10.59974 h 17.56041 a 5.2999107,5.2999104 0 0 0 5.2999,-5.30003 z"
     id="path18952"
     style="fill:#60023f;fill-opacity:1;stroke:#60023f;stroke-width:0.891357;stroke-miterlimit:4;stroke-dasharray:none;stroke-opacity:1" />
</svg>
