<svg width="48" height="48" viewBox="0 0 48 48" fill="none" xmlns="http://www.w3.org/2000/svg">
<g clip-path="url(#clip0_24_304)">
<path d="M45 0H3C1.34315 0 0 1.34315 0 3V45C0 46.6569 1.34315 48 3 48H45C46.6569 48 48 46.6569 48 45V3C48 1.34315 46.6569 0 45 0Z" fill="white"/>
<path d="M42.3326 6H5.66682C4.74645 6 4 6.74645 4 7.66682V32.6674C4 33.5878 4.74645 34.3324 5.66682 34.3324H18.6637L17.6657 39.3324H17.3332C16.8729 39.3324 16.5 39.7059 16.5 40.1674C16.5 40.6265 16.8729 41 17.3332 41H30.6674C31.1264 41 31.4999 40.6265 31.4999 40.1674C31.4999 39.706 31.1264 39.3324 30.6674 39.3324H30.333L29.3345 34.3324H42.3326C43.2541 34.3324 44 33.5879 44 32.6674V7.66682C43.9999 6.74637 43.2541 6 42.3326 6ZM19.3655 39.3325L20.3622 34.3398L27.6352 34.3373L28.6337 39.3325H19.3655ZM42.3326 32.6674H5.66682V30.9999H42.3326V32.6674ZM42.3326 29.3323H5.66682V7.66682H42.3326V29.3323Z" fill="#60023E"/>
<path d="M24.8333 31C24.373 31 24 31.3732 24 31.832C24 32.2932 24.373 32.6667 24.8333 32.6667C25.2937 32.6667 25.6667 32.2933 25.6667 31.832C25.6667 31.3732 25.2937 31 24.8333 31Z" fill="#8B0053"/>
<path d="M39.8341 12.6667H26.501C26.0402 12.6667 25.6667 13.0397 25.6667 13.5C25.6667 13.9602 26.0402 14.3333 26.501 14.3333H39.8341C40.2944 14.3333 40.6667 13.9603 40.6667 13.5C40.6667 13.0397 40.2943 12.6667 39.8341 12.6667Z" fill="#F58EB3"/>
<path d="M39.8341 16H26.501C26.0402 16 25.6667 16.3728 25.6667 16.833C25.6667 17.2932 26.0402 17.6667 26.501 17.6667H39.8341C40.2944 17.6667 40.6667 17.2932 40.6667 16.833C40.6667 16.3728 40.2943 16 39.8341 16Z" fill="#8B0053"/>
<path d="M39.8341 19.3333H26.501C26.0402 19.3333 25.6667 19.7068 25.6667 20.167C25.6667 20.6271 26.0402 21 26.501 21H39.8341C40.2944 21 40.6667 20.6271 40.6667 20.167C40.6667 19.7068 40.2943 19.3333 39.8341 19.3333Z" fill="#F58EB3"/>
<path d="M39.8341 22.6667H26.501C26.0402 22.6667 25.6667 23.0397 25.6667 23.5001C25.6667 23.9603 26.0402 24.3333 26.501 24.3333H39.8341C40.2944 24.3333 40.6667 23.9603 40.6667 23.5001C40.6667 23.0397 40.2943 22.6667 39.8341 22.6667Z" fill="#8B0053"/>
<path d="M17.4736 18.4997C21.2234 15.9919 22.2714 10.576 22.3191 10.3191C22.4033 9.86687 22.1049 9.43226 21.6525 9.34805C21.2002 9.26383 20.7655 9.56164 20.6801 10.0139C20.6777 10.0291 20.6033 10.4105 20.4317 11.0002H10.9017C10.7302 10.4105 10.6557 10.0291 10.6526 10.0139C10.5684 9.56164 10.1338 9.26375 9.68146 9.34742C9.22856 9.43164 8.92999 9.86679 9.01423 10.3191C9.06189 10.576 10.11 15.9919 13.8598 18.4997C10.11 21.0076 9.06181 26.4239 9.01423 26.6803C8.92999 27.1319 9.22848 27.5665 9.6802 27.652C9.73209 27.6618 9.78335 27.6654 9.83406 27.6654C10.2272 27.6654 10.5776 27.3859 10.6526 26.9855C10.6557 26.9708 10.7302 26.5888 10.9017 25.9993H20.4316C20.6031 26.5875 20.6776 26.9696 20.6801 26.9855C20.7545 27.3859 21.1049 27.6667 21.4986 27.6667C21.5501 27.6666 21.6014 27.6617 21.6519 27.652C22.1042 27.5678 22.4033 27.1332 22.3191 26.6803C22.2715 26.4239 21.2234 21.0076 17.4736 18.4997ZM12.3068 14.3331C11.9784 13.7705 11.7068 13.2004 11.4864 12.6669H19.8469C19.6259 13.2004 19.3549 13.7705 19.0264 14.3331H12.3068ZM13.5125 15.9999H17.8208C17.2214 16.6596 16.5084 17.226 15.6667 17.5989C14.8249 17.2261 14.1119 16.6597 13.5125 15.9999ZM15.6667 19.4005C16.5084 19.7735 17.2214 20.3398 17.8208 20.9996H13.5125C14.1119 20.3398 14.8249 19.7735 15.6667 19.4005ZM11.4865 24.3324C11.7068 23.7991 11.9785 23.229 12.3069 22.6663H19.0265C19.3549 23.229 19.6259 23.7991 19.8469 24.3324H11.4865Z" fill="#F58EB3" stroke="#F58EB3" stroke-width="0.08"/>
</g>
<defs>
<clipPath id="clip0_24_304">
<rect width="48" height="48" fill="white"/>
</clipPath>
</defs>
</svg>
