<svg width="48" height="48" viewBox="0 0 48 48" fill="none" xmlns="http://www.w3.org/2000/svg">
<g clip-path="url(#clip0_24_307)">
<path d="M3 0H45C45.7957 0 46.5587 0.31607 47.1213 0.87868C47.6839 1.44129 48 2.20435 48 3V45C48 45.7957 47.6839 46.5587 47.1213 47.1213C46.5587 47.6839 45.7957 48 45 48H3C2.20435 48 1.44129 47.6839 0.87868 47.1213C0.31607 46.5587 0 45.7957 0 45L0 3C0 2.20435 0.31607 1.44129 0.87868 0.87868C1.44129 0.31607 2.20435 0 3 0Z" fill="white"/>
<path d="M19.01 44.24C19.0104 44.2463 19.0093 44.2526 19.0068 44.2583C19.0042 44.2641 19.0004 44.2692 18.9954 44.2731C18.9905 44.277 18.9847 44.2797 18.9786 44.2809C18.9724 44.2821 18.966 44.2818 18.96 44.28H18.92C16.8139 45.1423 14.5555 45.5708 12.28 45.54C10.0076 45.5718 7.75231 45.1432 5.65 44.28C5.57 44.28 5.56 44.27 5.56 44.19C5.56 43.96 5.59 43.76 5.59 43.54C5.58979 43.4998 5.59313 43.4596 5.6 43.42C5.61612 43.2452 5.64283 43.0716 5.68 42.9C5.7373 42.5542 5.82087 42.2132 5.93 41.88C6.15646 41.1421 6.50826 40.4486 6.97 39.83C7.1505 39.5744 7.35114 39.3337 7.57 39.11C7.68326 38.9801 7.80701 38.8597 7.94 38.75C8.15656 38.5504 8.38715 38.3666 8.63 38.2C8.64326 38.1865 8.65923 38.176 8.67685 38.1691C8.69447 38.1623 8.71335 38.1592 8.73224 38.1601C8.75113 38.1611 8.76961 38.166 8.78646 38.1746C8.80331 38.1832 8.81815 38.1953 8.83 38.21C9.54323 38.8502 10.4244 39.2735 11.37 39.43C12.1402 39.5732 12.9328 39.5396 13.6881 39.3317C14.4433 39.1238 15.1415 38.7471 15.73 38.23C15.86 38.12 15.82 38.1 15.99 38.21C17.5033 39.2873 18.5366 40.9126 18.87 42.74C18.91 42.97 18.95 43.2 18.97 43.44C18.9716 43.4702 18.9749 43.5002 18.98 43.53L19.01 44.24Z" fill="#00BA8B" stroke="white" stroke-miterlimit="10"/>
<path d="M12.79 31.23C12.82 31.2506 12.8541 31.2642 12.89 31.27C13.8734 31.4231 14.7631 31.9407 15.3823 32.7198C16.0015 33.4989 16.3048 34.4825 16.2319 35.4751C16.159 36.4676 15.7153 37.3963 14.9889 38.0766C14.2625 38.7569 13.3067 39.139 12.3115 39.1467C11.3163 39.1545 10.3547 38.7875 9.61774 38.1186C8.88082 37.4497 8.4226 36.528 8.33421 35.5368C8.24582 34.5455 8.53371 33.5573 9.14066 32.7685C9.74761 31.9798 10.6292 31.4484 11.61 31.28C11.67 31.28 11.74 31.29 11.79 31.23H12.78H12.79Z" fill="#00BA8B" stroke="white" stroke-miterlimit="10"/>
<path d="M24 0H44.97C45.7733 0.00105834 46.5434 0.320629 47.1114 0.888635C47.6794 1.45664 47.9989 2.22672 48 3.03V45.11C47.9997 45.8764 47.6952 46.6113 47.1532 47.1532C46.6113 47.6952 45.8764 47.9997 45.11 48H24V0Z" fill="#BFEEE2"/>
<path d="M27.88 14.49H16.31V9.31L3.46002 19.25L16.31 29.18V24H27.88V14.49Z" fill="#FCD242"/>
<path d="M20.04 33.51H31.61V38.69L44.46 28.75L31.61 18.82V24H20.04V33.51Z" fill="#2A74A5"/>
<path d="M42.72 15.27C42.7204 15.2763 42.7193 15.2825 42.7168 15.2883C42.7143 15.2941 42.7104 15.2991 42.7055 15.3031C42.7006 15.307 42.6948 15.3097 42.6886 15.3109C42.6824 15.3121 42.676 15.3118 42.67 15.31H42.63C40.5239 16.1723 38.2656 16.6008 35.99 16.57C33.7176 16.6017 31.4623 16.1731 29.36 15.31C29.28 15.31 29.27 15.3 29.27 15.22C29.27 14.99 29.3 14.79 29.3 14.57C29.2998 14.5298 29.3032 14.4896 29.31 14.45C29.3261 14.2752 29.3529 14.1015 29.39 13.93C29.4473 13.5841 29.5309 13.2431 29.64 12.91C29.8665 12.172 30.2183 11.4786 30.68 10.86C30.8605 10.6044 31.0612 10.3636 31.28 10.14C31.3933 10.0101 31.517 9.88965 31.65 9.77999C31.8666 9.58041 32.0972 9.3966 32.34 9.22999C32.3533 9.2165 32.3692 9.20597 32.3869 9.1991C32.4045 9.19222 32.4234 9.18915 32.4423 9.1901C32.4612 9.19104 32.4796 9.19598 32.4965 9.20458C32.5133 9.21317 32.5282 9.22524 32.54 9.23999C33.2533 9.8802 34.1345 10.3035 35.08 10.46C35.8502 10.6031 36.6428 10.5695 37.3981 10.3616C38.1534 10.1538 38.8516 9.77708 39.44 9.25999C39.57 9.14999 39.53 9.12999 39.7 9.23999C41.2133 10.3173 42.2466 11.9425 42.58 13.77C42.62 14 42.66 14.23 42.68 14.47C42.6816 14.5002 42.6849 14.5302 42.69 14.56L42.72 15.27Z" fill="#EE5251" stroke="#BFEEE2" stroke-miterlimit="10"/>
<path d="M36.5 2.25C36.53 2.27056 36.5641 2.28422 36.6 2.29C37.5834 2.44309 38.4731 2.96065 39.0923 3.73977C39.7115 4.5189 40.0148 5.50252 39.9419 6.49505C39.869 7.48759 39.4253 8.41634 38.6989 9.09663C37.9725 9.77693 37.0167 10.1589 36.0215 10.1667C35.0263 10.1745 34.0647 9.80746 33.3278 9.1386C32.5908 8.46973 32.1326 7.54803 32.0442 6.55675C31.9558 5.56548 32.2437 4.57724 32.8507 3.78854C33.4576 2.99983 34.3392 2.46843 35.32 2.3C35.38 2.3 35.45 2.31 35.5 2.25H36.49H36.5Z" fill="#EE5251" stroke="#BFEEE2" stroke-miterlimit="10"/>
</g>
<defs>
<clipPath id="clip0_24_307">
<rect width="48" height="48" fill="white"/>
</clipPath>
</defs>
</svg>
