<svg width="48" height="48" viewBox="0 0 48 48" fill="none" xmlns="http://www.w3.org/2000/svg">
<g clip-path="url(#clip0_24_310)">
<path d="M45 0H3C1.34315 0 0 1.34315 0 3V45C0 46.6569 1.34315 48 3 48H45C46.6569 48 48 46.6569 48 45V3C48 1.34315 46.6569 0 45 0Z" fill="white"/>
<path d="M24 44C35.0457 44 44 35.0457 44 24C44 12.9543 35.0457 4 24 4C12.9543 4 4 12.9543 4 24C4 35.0457 12.9543 44 24 44Z" fill="#60023E"/>
<path d="M26.5 40.731C35.8888 40.731 43.5 33.1198 43.5 23.731C43.5 14.3421 35.8888 6.73099 26.5 6.73099C17.1112 6.73099 9.5 14.3421 9.5 23.731C9.5 33.1198 17.1112 40.731 26.5 40.731Z" fill="#8B0053"/>
<path d="M29 38C36.732 38 43 31.732 43 24C43 16.268 36.732 10 29 10C21.268 10 15 16.268 15 24C15 31.732 21.268 38 29 38Z" fill="white"/>
<path d="M16.7809 24.02C18.0619 23.6962 19.4109 23.7684 20.6499 24.227C21.1453 24.4113 21.6162 24.6558 22.0519 24.955C21.1557 25.8189 20.4651 26.8733 20.0313 28.0401C19.5976 29.207 19.4317 30.4564 19.5459 31.696C17.7636 29.5349 16.7864 26.8213 16.7809 24.02Z" fill="#F58EB3"/>
<path d="M22.1269 23.363C23.2514 23.363 24.1629 22.4514 24.1629 21.327C24.1629 20.2025 23.2514 19.291 22.1269 19.291C21.0025 19.291 20.0909 20.2025 20.0909 21.327C20.0909 22.4514 21.0025 23.363 22.1269 23.363Z" fill="#F58EB3"/>
<path d="M20.914 33.394C20.6525 32.1869 20.6647 30.9365 20.9495 29.7347C21.2344 28.5329 21.7847 27.4101 22.5601 26.4487C23.3355 25.4874 24.3164 24.7118 25.4307 24.179C26.5449 23.6462 27.7644 23.3697 28.9995 23.3697C30.2346 23.3697 31.4541 23.6462 32.5683 24.179C33.6826 24.7118 34.6635 25.4874 35.4389 26.4487C36.2143 27.4101 36.7646 28.5329 37.0495 29.7347C37.3343 30.9365 37.3465 32.1869 37.085 33.394C34.7225 35.07 31.8966 35.9683 29 35.964C26.1031 35.9685 23.2768 35.0702 20.914 33.394Z" fill="#D95832"/>
<path d="M29 21.837C31.2495 21.837 33.073 20.0135 33.073 17.764C33.073 15.5146 31.2495 13.691 29 13.691C26.7505 13.691 24.927 15.5146 24.927 17.764C24.927 20.0135 26.7505 21.837 29 21.837Z" fill="#D95832"/>
<path d="M41.087 24.016C40.3434 23.8271 39.572 23.7722 38.809 23.854C38.2657 23.9099 37.7315 24.0339 37.219 24.223C36.7233 24.4073 36.2521 24.6518 35.816 24.951C37.2263 26.3022 38.1108 28.1103 38.312 30.053C38.3694 30.598 38.3728 31.1473 38.322 31.693C40.1048 29.5313 41.082 26.8179 41.087 24.016Z" fill="#F58EB3"/>
<path d="M35.872 23.363C36.9964 23.363 37.908 22.4514 37.908 21.327C37.908 20.2025 36.9964 19.291 35.872 19.291C34.7475 19.291 33.836 20.2025 33.836 21.327C33.836 22.4514 34.7475 23.363 35.872 23.363Z" fill="#F58EB3"/>
</g>
<defs>
<clipPath id="clip0_24_310">
<rect width="48" height="48" fill="white"/>
</clipPath>
</defs>
</svg>
