<svg width="48" height="48" viewBox="0 0 48 48" fill="none" xmlns="http://www.w3.org/2000/svg">
<g clip-path="url(#clip0_24_306)">
<path d="M45 0H3C1.34315 0 0 1.34315 0 3V45C0 46.6569 1.34315 48 3 48H45C46.6569 48 48 46.6569 48 45V3C48 1.34315 46.6569 0 45 0Z" fill="white"/>
<path d="M30.03 30.49C28.8993 31.4954 27.5303 32.1949 26.0531 32.5222C24.5759 32.8495 23.0395 32.7937 21.59 32.36C21.3608 30.902 20.8731 29.4966 20.15 28.21C20.104 28.1331 20.0639 28.0529 20.03 27.97C24.72 30.48 27.2 28.96 27.94 28.34C27.95 28.34 27.96 28.34 27.96 28.32C28.0173 28.2781 28.0708 28.2312 28.12 28.18L28.18 28.12C28.2382 28.0456 28.3017 27.9754 28.37 27.91C28.98 27.19 30.48 24.72 27.99 20.02C27.95 19.94 27.91 19.86 27.86 19.78C27.1356 18.4975 26.6478 17.0952 26.42 15.64C26.1662 13.7529 26.3708 11.8325 27.0167 10.0413C27.6625 8.25014 28.7304 6.64095 30.13 5.35001C30.2768 5.19243 30.4537 5.06588 30.6503 4.97783C30.8469 4.88978 31.0591 4.84201 31.2744 4.83735C31.4897 4.83269 31.7038 4.87123 31.904 4.95069C32.1042 5.03016 32.2864 5.14893 32.44 5.30001C32.6883 5.6637 32.7882 6.1085 32.7195 6.54345C32.6507 6.97841 32.4183 7.37066 32.07 7.64001C30.7977 8.88448 29.9674 10.5109 29.7056 12.2712C29.4439 14.0315 29.7649 15.8292 30.62 17.39C30.69 17.52 30.76 17.66 30.84 17.8C31.515 18.9903 32.0295 20.2647 32.37 21.59C32.8011 23.0398 32.8557 24.5756 32.5285 26.0523C32.2013 27.529 31.5032 28.898 30.5 30.03C30.4 30.14 30.25 30.3 30.03 30.5V30.49Z" fill="#EE5251" stroke="white" stroke-miterlimit="10"/>
<path d="M7.62998 32.07C7.35833 32.4156 6.9655 32.645 6.53104 32.7119C6.09658 32.7787 5.65295 32.678 5.28998 32.43L5.21998 32.36C4.95271 32.042 4.81727 31.6338 4.84144 31.2192C4.86562 30.8045 5.04758 30.4148 5.34998 30.13C6.64377 28.7342 8.25332 27.6689 10.0437 27.0234C11.8341 26.3779 13.7531 26.171 15.64 26.42C15.9808 27.7452 16.4952 29.0196 17.17 30.21C17.24 30.35 17.32 30.49 17.39 30.62C15.8275 29.7618 14.0267 29.4399 12.2637 29.7036C10.5007 29.9673 8.87288 30.8022 7.62998 32.08V32.07Z" fill="#EE5251" stroke="white" stroke-miterlimit="10"/>
<path d="M27.98 20.03C26.371 19.0639 24.5153 18.5878 22.64 18.66C22.4357 18.6869 22.2281 18.6663 22.0331 18.5997C21.8382 18.5332 21.6612 18.4226 21.5161 18.2764C21.3709 18.1303 21.2614 17.9526 21.1962 17.7572C21.131 17.5619 21.1117 17.3541 21.14 17.15C21.1956 16.6903 21.4044 16.2626 21.7327 15.9361C22.0611 15.6095 22.4899 15.4031 22.95 15.35C24.1114 15.2556 25.2804 15.3536 26.41 15.64C26.6332 17.0964 27.1212 18.4995 27.85 19.78C27.89 19.86 27.94 19.95 27.98 20.02V20.03Z" fill="#00BA8B" stroke="white" stroke-miterlimit="10"/>
<path d="M32.3699 21.59C32.0268 20.2656 31.5124 18.9915 30.8399 17.8C30.7699 17.66 30.6899 17.52 30.6199 17.39C32.1803 18.2467 33.9784 18.5687 35.7391 18.3069C37.4998 18.045 39.1264 17.2137 40.3699 15.94C40.6419 15.5948 41.0347 15.3657 41.469 15.2989C41.9033 15.232 42.3468 15.3325 42.7099 15.58C42.8589 15.7337 42.9758 15.9154 43.054 16.1146C43.1321 16.3138 43.17 16.5265 43.1653 16.7405C43.1607 16.9544 43.1136 17.1653 43.0269 17.3609C42.9401 17.5565 42.8154 17.733 42.6599 17.88C41.3661 19.2758 39.7566 20.3411 37.9662 20.9867C36.1758 21.6322 34.2568 21.8391 32.3699 21.59Z" fill="#00BA8B" stroke="white" stroke-miterlimit="10"/>
<path d="M17.88 42.65C17.5931 42.9525 17.2018 43.1343 16.7857 43.1584C16.3696 43.1826 15.9599 43.0472 15.64 42.78L15.56 42.7C15.3132 42.335 15.2152 41.8895 15.2858 41.4546C15.3564 41.0197 15.5904 40.6282 15.94 40.36C17.2131 39.1161 18.044 37.4896 18.3058 35.729C18.5676 33.9685 18.246 32.1706 17.39 30.61C17.32 30.48 17.25 30.34 17.17 30.2C16.4952 29.0096 15.9807 27.7352 15.64 26.41C15.3421 25.2484 15.2473 24.044 15.36 22.85C15.4159 22.3914 15.6251 21.9651 15.9537 21.6402C16.2822 21.3153 16.7107 21.1109 17.17 21.06C17.3741 21.0314 17.582 21.051 17.7773 21.1171C17.9725 21.1832 18.1495 21.294 18.2943 21.4407C18.4391 21.5874 18.5475 21.7659 18.611 21.962C18.6745 22.1581 18.6913 22.3663 18.66 22.57C18.5681 24.4663 19.0452 26.3468 20.03 27.97C20.06 28.05 20.11 28.13 20.15 28.21C20.8745 29.496 21.3622 30.9016 21.59 32.36C21.839 34.2469 21.6321 36.1659 20.9866 37.9563C20.3411 39.7467 19.2758 41.3562 17.88 42.65Z" fill="#00BA8B" stroke="white" stroke-miterlimit="10"/>
<path d="M39.52 17.56L33.49 11.53C33.3867 11.4015 33.3373 11.238 33.3522 11.0738C33.3671 10.9097 33.4452 10.7577 33.57 10.65C33.6763 10.523 33.8285 10.4432 33.9935 10.4282C34.1584 10.4132 34.3226 10.4642 34.45 10.57L40.48 16.6C40.5833 16.7285 40.6327 16.892 40.6178 17.0562C40.6029 17.2203 40.5248 17.3723 40.4 17.48C40.2937 17.607 40.1415 17.6868 39.9765 17.7018C39.8116 17.7168 39.6474 17.6658 39.52 17.56Z" fill="#00BA8B"/>
<path d="M33.87 16.5L28.59 11.22C28.4867 11.0916 28.4373 10.928 28.4522 10.7638C28.4671 10.5997 28.5452 10.4477 28.67 10.34C28.7762 10.213 28.9285 10.1332 29.0935 10.1182C29.2584 10.1032 29.4225 10.1542 29.55 10.26L34.83 15.54C34.9333 15.6685 34.9827 15.832 34.9678 15.9962C34.9528 16.1603 34.8748 16.3123 34.75 16.42C34.6437 16.547 34.4914 16.6268 34.3265 16.6418C34.1616 16.6568 33.9974 16.6058 33.87 16.5Z" fill="#EE5251"/>
<path d="M13.35 37.13L7.31996 31.1C7.21665 30.9716 7.16726 30.808 7.18218 30.6438C7.1971 30.4797 7.27518 30.3277 7.39996 30.22C7.50622 30.093 7.6585 30.0132 7.82343 29.9982C7.98837 29.9832 8.15253 30.0342 8.27996 30.14L14.31 36.17C14.4133 36.2985 14.4627 36.462 14.4477 36.6262C14.4328 36.7903 14.3547 36.9423 14.23 37.05C14.1237 37.177 13.9714 37.2568 13.8065 37.2718C13.6415 37.2868 13.4774 37.2358 13.35 37.13Z" fill="#EE5251"/>
<path d="M18.25 37.45L12.97 32.17C12.8667 32.0416 12.8173 31.878 12.8322 31.7139C12.8471 31.5497 12.9252 31.3977 13.05 31.29C13.1562 31.163 13.3085 31.0832 13.4735 31.0682C13.6384 31.0533 13.8026 31.1042 13.93 31.21L19.21 36.49C19.3133 36.6185 19.3627 36.782 19.3478 36.9462C19.3328 37.1103 19.2548 37.2623 19.13 37.37C19.0237 37.497 18.8714 37.5768 18.7065 37.5918C18.5416 37.6068 18.3774 37.5558 18.25 37.45Z" fill="#00BA8B"/>
<path d="M28.24 28.85L22.24 22.85C22.1367 22.7216 22.0873 22.558 22.1022 22.3938C22.1171 22.2297 22.1952 22.0777 22.32 21.97C22.4263 21.843 22.5785 21.7632 22.7435 21.7482C22.9084 21.7332 23.0726 21.7842 23.2 21.89L29.2 27.89C29.3033 28.0185 29.3527 28.182 29.3378 28.3462C29.3229 28.5103 29.2448 28.6623 29.12 28.77C29.0137 28.897 28.8615 28.9768 28.6965 28.9918C28.5316 29.0068 28.3674 28.9558 28.24 28.85Z" fill="#EE5251"/>
<path d="M29.74 26.21L25.37 21.84C25.2667 21.7115 25.2173 21.548 25.2322 21.3838C25.2472 21.2197 25.3252 21.0677 25.45 20.96C25.5563 20.833 25.7085 20.7532 25.8735 20.7382C26.0384 20.7232 26.2026 20.7742 26.33 20.88L30.7 25.25C30.8033 25.3785 30.8527 25.542 30.8378 25.7062C30.8229 25.8703 30.7448 26.0223 30.62 26.13C30.5137 26.257 30.3615 26.3368 30.1965 26.3518C30.0316 26.3668 29.8674 26.3158 29.74 26.21Z" fill="#EE5251"/>
<path d="M25.55 30.4L21.18 26.03C21.0767 25.9015 21.0273 25.738 21.0422 25.5738C21.0571 25.4097 21.1352 25.2577 21.26 25.15C21.3663 25.023 21.5185 24.9432 21.6835 24.9282C21.8484 24.9132 22.0126 24.9642 22.14 25.07L26.51 29.44C26.6133 29.5685 26.6627 29.732 26.6478 29.8962C26.6329 30.0603 26.5548 30.2123 26.43 30.32C26.3237 30.447 26.1715 30.5268 26.0065 30.5418C25.8416 30.5568 25.6774 30.5058 25.55 30.4Z" fill="#EE5251"/>
<path d="M17.7 17.2L13.99 10.47C13.99 10.47 10.53 13.44 10.77 13.69C11.01 13.94 17.69 17.2 17.69 17.2H17.7Z" fill="#FCD242"/>
<path d="M16.38 18.51L10.29 17.29L10.65 20.58L16.38 18.51Z" fill="#FCD242"/>
<path d="M18.86 16.03L17.64 9.94L20.93 10.3L18.86 16.03Z" fill="#FCD242"/>
</g>
<defs>
<clipPath id="clip0_24_306">
<rect width="48" height="48" fill="white"/>
</clipPath>
</defs>
</svg>
