<svg width="48" height="48" viewBox="0 0 48 48" fill="none" xmlns="http://www.w3.org/2000/svg">
<g clip-path="url(#clip0_24_303)">
<path d="M45 0H3C1.34315 0 0 1.34315 0 3V45C0 46.6569 1.34315 48 3 48H45C46.6569 48 48 46.6569 48 45V3C48 1.34315 46.6569 0 45 0Z" fill="white"/>
<path d="M4.84998 24.36H8.32998V26.43H4.84998V24.36Z" fill="#00BA8B"/>
<path opacity="0.403" d="M8.32996 24.36H11.81V26.43H8.32996V24.36Z" fill="#00BA8B"/>
<path opacity="0.703" d="M11.81 24.36H15.29V26.43H11.81V24.36Z" fill="#EE5251"/>
<path d="M15.29 24.36H18.77V26.43H15.29V24.36Z" fill="#00BA8B"/>
<path opacity="0.7" d="M4.84998 26.42H8.32998V28.49H4.84998V26.42Z" fill="#00BA8B"/>
<path opacity="0.403" d="M8.32996 26.42H11.81V28.49H8.32996V26.42Z" fill="#00BA8B"/>
<path d="M11.81 26.42H15.29V28.49H11.81V26.42Z" fill="#00BA8B"/>
<path d="M15.29 26.42H18.77V28.49H15.29V26.42Z" fill="#00BA8B"/>
<path opacity="0.4" d="M18.78 24.36H22.26V26.43H18.78V24.36Z" fill="#EE5251"/>
<path d="M22.2599 24.36H25.7399V26.43H22.2599V24.36Z" fill="#EE5251"/>
<path opacity="0.7" d="M18.78 28.49H22.26V30.56H18.78V28.49Z" fill="#00BA8B"/>
<path opacity="0.4" d="M22.2599 28.49H25.7399V30.56H22.2599V28.49Z" fill="#EE5251"/>
<path d="M25.74 30.55H29.22V32.62H25.74V30.55Z" fill="#00BA8B"/>
<path opacity="0.403" d="M29.22 30.55H32.7V32.62H29.22V30.55Z" fill="#00BA8B"/>
<path opacity="0.4" d="M25.74 24.36H29.22V26.43H25.74V24.36Z" fill="#EE5251"/>
<path d="M29.22 24.36H32.7V26.43H29.22V24.36Z" fill="#00BA8B"/>
<path opacity="0.7" d="M32.71 24.36H36.19V26.43H32.71V24.36Z" fill="#00BA8B"/>
<path opacity="0.703" d="M36.19 24.36H39.67V26.43H36.19V24.36Z" fill="#EE5251"/>
<path d="M36.19 32.62H39.67V34.69H36.19V32.62Z" fill="#00BA8B"/>
<path opacity="0.4" d="M39.67 24.36H43.15V26.43H39.67V24.36Z" fill="#EE5251"/>
<path opacity="0.703" d="M39.67 34.69H43.15V36.76H39.67V34.69Z" fill="#EE5251"/>
<path opacity="0.4" d="M4.84998 34.69H8.32998V36.76H4.84998V34.69Z" fill="#EE5251"/>
<path d="M4.84998 38.87H8.32998V40.99H4.84998V38.87Z" fill="#EE5251"/>
<path opacity="0.403" d="M8.32996 38.87H11.81V40.99H8.32996V38.87Z" fill="#00BA8B"/>
<path opacity="0.4" d="M11.81 38.87H15.29V40.99H11.81V38.87Z" fill="#EE5251"/>
<path opacity="0.403" d="M15.29 38.87H18.77V40.99H15.29V38.87Z" fill="#00BA8B"/>
<path opacity="0.403" d="M18.78 38.87H22.26V40.99H18.78V38.87Z" fill="#00BA8B"/>
<path opacity="0.7" d="M22.2599 38.87H25.7399V40.99H22.2599V38.87Z" fill="#00BA8B"/>
<path opacity="0.703" d="M25.74 38.87H29.22V40.99H25.74V38.87Z" fill="#EE5251"/>
<path opacity="0.7" d="M29.22 38.87H32.7V40.99H29.22V38.87Z" fill="#00BA8B"/>
<path opacity="0.7" d="M32.71 38.87H36.19V40.99H32.71V38.87Z" fill="#00BA8B"/>
<path d="M36.19 38.87H39.67V40.99H36.19V38.87Z" fill="#00BA8B"/>
<path opacity="0.403" d="M39.67 38.87H43.15V40.99H39.67V38.87Z" fill="#00BA8B"/>
<path d="M4.84998 40.99H8.32998V43.11H4.84998V40.99Z" fill="#00BA8B"/>
<path opacity="0.7" d="M8.32996 40.99H11.81V43.11H8.32996V40.99Z" fill="#00BA8B"/>
<path d="M11.81 40.99H15.29V43.11H11.81V40.99Z" fill="#00BA8B"/>
<path d="M15.29 40.99H18.77V43.11H15.29V40.99Z" fill="#EE5251"/>
<path d="M18.78 40.99H22.26V43.11H18.78V40.99Z" fill="#00BA8B"/>
<path d="M22.2599 40.99H25.7399V43.11H22.2599V40.99Z" fill="#00BA8B"/>
<path opacity="0.703" d="M25.74 40.99H29.22V43.11H25.74V40.99Z" fill="#EE5251"/>
<path d="M29.22 40.99H32.7V43.11H29.22V40.99Z" fill="#00BA8B"/>
<path d="M32.71 40.99H36.19V43.11H32.71V40.99Z" fill="#00BA8B"/>
<path d="M36.19 40.99H39.67V43.11H36.19V40.99Z" fill="#00BA8B"/>
<path d="M39.67 40.99H43.15V43.11H39.67V40.99Z" fill="#00BA8B"/>
<path d="M4.86298 3.20001V20.609H43.153L43.192 18.731H6.21698L6.17798 3.20001H4.86298Z" fill="#313131"/>
<path d="M8.19 4.62902V18.729H43.181V17.924H36.94V15.1H35.825V17.135H27.173V13.569H24.594V15.778H20.194V13.569H13.894V11.92H10.959V9.53102H9.402V4.62402L8.19 4.62902Z" fill="#FCD242"/>
</g>
<defs>
<clipPath id="clip0_24_303">
<rect width="48" height="48" fill="white"/>
</clipPath>
</defs>
</svg>
