<svg width="48" height="48" viewBox="0 0 48 48" fill="none" xmlns="http://www.w3.org/2000/svg">
<g clip-path="url(#clip0_24_309)">
<path d="M45 0H3C1.34315 0 0 1.34315 0 3V45C0 46.6569 1.34315 48 3 48H45C46.6569 48 48 46.6569 48 45V3C48 1.34315 46.6569 0 45 0Z" fill="white"/>
<path d="M24.2277 20.1046C24.8879 20.1046 25.5171 20.2426 26.0891 20.4908C26.132 19.5574 26.4537 18.6943 26.9698 17.9798C26.6008 17.9025 26.2248 17.8635 25.8478 17.8634H22.2115C21.8285 17.8634 21.4537 17.9034 21.0931 17.9785C21.6629 18.7651 21.972 19.7103 21.9771 20.6815C22.6665 20.3021 23.4408 20.1037 24.2277 20.1046Z" fill="#60023E"/>
<path d="M24.0288 17.5711C26.3956 17.5711 28.3143 15.6524 28.3143 13.2855C28.3143 10.9187 26.3956 9 24.0288 9C21.662 9 19.7433 10.9187 19.7433 13.2855C19.7433 15.6524 21.662 17.5711 24.0288 17.5711Z" fill="#60023E"/>
<path d="M30.7596 24.8837C31.8068 24.8837 32.811 24.4677 33.5515 23.7273C34.2919 22.9868 34.7079 21.9826 34.7079 20.9354C34.708 20.4169 34.606 19.9034 34.4076 19.4244C34.2092 18.9453 33.9184 18.51 33.5517 18.1433C33.1851 17.7767 32.7498 17.4859 32.2707 17.2875C31.7916 17.0891 31.2782 16.9871 30.7596 16.9872C28.5989 16.9872 26.8469 18.7229 26.8142 20.8758C28.0591 21.6565 28.9321 22.9769 29.0913 24.5097C29.6131 24.7556 30.1828 24.8833 30.7596 24.8837ZM17.2988 16.9868C16.7802 16.9867 16.2668 17.0888 15.7877 17.2872C15.3086 17.4856 14.8733 17.7764 14.5067 18.143C14.14 18.5097 13.8491 18.9449 13.6507 19.424C13.4522 19.903 13.3501 20.4165 13.3501 20.935C13.3501 23.1158 15.1172 24.8829 17.2988 24.8829C18.0423 24.8826 18.7705 24.6714 19.3987 24.2737C19.59 23.0381 20.2474 21.9227 21.2356 21.1567C21.2397 21.0828 21.2466 21.0097 21.2466 20.935C21.2466 18.7543 19.4787 16.9868 17.2988 16.9868Z" fill="#60023E"/>
<path d="M33.3242 16.9027C34.5691 17.6834 35.442 19.0038 35.6008 20.537C36.1227 20.7828 36.6923 20.9105 37.2692 20.911C37.7877 20.911 38.3011 20.8089 38.7802 20.6105C39.2592 20.4121 39.6945 20.1213 40.0611 19.7547C40.4278 19.388 40.7186 18.9528 40.917 18.4737C41.1154 17.9947 41.2175 17.4812 41.2174 16.9627C41.2175 16.4442 41.1154 15.9308 40.917 15.4517C40.7186 14.9727 40.4278 14.5374 40.0611 14.1707C39.6945 13.8041 39.2592 13.5133 38.7802 13.3149C38.3011 13.1165 37.7877 13.0144 37.2692 13.0144C35.1088 13.014 33.3568 14.7501 33.3242 16.9027Z" fill="#F58EB3"/>
<path d="M24.2277 28.9602C26.4085 28.9602 28.1763 27.1923 28.1763 25.0115C28.1763 22.8307 26.4085 21.0629 24.2277 21.0629C22.0469 21.0629 20.279 22.8307 20.279 25.0115C20.279 27.1923 22.0469 28.9602 24.2277 28.9602Z" fill="#60023E"/>
<path d="M32.4353 25.1528H29.1101C29.0762 26.4365 28.5363 27.6548 27.608 28.5421C30.0855 29.2795 31.8988 31.5774 31.8988 34.2918V35.5542C35.1815 35.433 37.0736 34.5037 37.1981 34.44L37.4619 34.3061H37.4893V30.2084C37.4901 27.4205 35.2224 25.1528 32.4353 25.1528Z" fill="#60023E"/>
<path d="M38.9444 21.18H35.62C35.5863 22.4637 35.0465 23.682 34.1183 24.5693C36.5959 25.3067 38.4087 27.6042 38.4087 30.3186V31.5811C41.691 31.4602 43.5835 30.5309 43.708 30.4668L43.9718 30.3333H44V26.2356C44 23.4481 41.7323 21.18 38.9444 21.18Z" fill="#F58EB3"/>
<path d="M20.8448 28.5417C19.9218 27.6587 19.3826 26.4484 19.3435 25.1716C19.2206 25.1626 19.0985 25.1524 18.9728 25.1524H15.6235C12.8356 25.1524 10.5675 27.4205 10.5675 30.2084V34.3065L10.5777 34.3698L10.8598 34.4588C12.994 35.1256 14.8992 35.4318 16.5532 35.529V34.2914C16.554 31.5774 18.3665 29.2795 20.8448 28.5417Z" fill="#60023E"/>
<path d="M25.9025 29.2293H22.552C19.7641 29.2293 17.496 31.4982 17.496 34.2849V38.383L17.5066 38.4471L17.7883 38.5353C20.4488 39.3662 22.7602 39.6438 24.6621 39.6438C28.378 39.6438 30.5314 38.5843 30.6645 38.5169L30.9283 38.383H30.956V34.2849C30.9572 31.4974 28.6895 29.2293 25.9025 29.2293Z" fill="#60023E"/>
<path d="M10.7312 21.0367C11.3081 21.0361 11.8777 20.9084 12.3996 20.6627C12.5588 19.1295 13.4313 17.8087 14.6763 17.028C14.6436 14.8758 12.8916 13.1397 10.7312 13.1397C10.2127 13.1397 9.69919 13.2418 9.22009 13.4402C8.74099 13.6386 8.30567 13.9295 7.93899 14.2962C7.57231 14.6628 7.28146 15.0982 7.08304 15.5773C6.88462 16.0564 6.78252 16.5699 6.78257 17.0884C6.78257 17.6069 6.88471 18.1204 7.08315 18.5994C7.2816 19.0785 7.57246 19.5138 7.93914 19.8804C8.30581 20.247 8.74111 20.5379 9.22019 20.7363C9.69926 20.9347 10.2127 21.0367 10.7312 21.0367ZM13.8817 24.6955C12.9537 23.8077 12.414 22.5892 12.3804 21.3053H9.05558C6.2677 21.3058 4 23.5739 4 26.3613V30.4595H4.02817L4.29194 30.593C4.41688 30.6558 6.30853 31.5864 9.59127 31.7068V30.4443C9.59127 27.7304 11.4037 25.4325 13.8817 24.6955Z" fill="#F58EB3"/>
<path d="M15.3492 16.5965C15.8228 16.4046 16.5455 16.169 17.2355 16.169C18.0386 16.169 18.8242 16.3756 19.5249 16.7688C19.6813 16.6148 19.8247 16.4482 19.9536 16.2706C19.2866 15.3946 18.9251 14.3241 18.9247 13.2231C18.9247 12.4808 19.0904 11.7442 19.4065 11.075C18.6914 10.4258 17.7595 10.0674 16.7937 10.0702C15.9342 10.071 15.0989 10.3549 14.4169 10.878C13.7349 11.4011 13.2442 12.1343 13.0206 12.9642C14.3468 13.7359 15.2108 15.0849 15.3492 16.5965ZM28.1376 16.0473C28.2766 16.2676 28.4373 16.4735 28.6173 16.6618C29.2628 16.3387 29.9745 16.1699 30.6964 16.1686C31.4023 16.1686 32.0789 16.349 32.5223 16.5001C32.5921 15.6926 32.8694 14.9168 33.3272 14.2479C33.7851 13.5791 34.4079 13.0398 35.1354 12.6825C34.8677 11.919 34.3696 11.2575 33.7098 10.7893C33.05 10.3211 32.2612 10.0692 31.4521 10.0685C30.9212 10.0682 30.3958 10.1764 29.9082 10.3865C29.4205 10.5966 28.981 10.9041 28.6165 11.2902C28.8754 11.9075 29.0064 12.5563 29.0064 13.2214C29.0087 14.2295 28.7058 15.2146 28.1376 16.0473Z" fill="#F58EB3"/>
</g>
<defs>
<clipPath id="clip0_24_309">
<rect width="48" height="48" fill="white"/>
</clipPath>
</defs>
</svg>
