<svg width="48" height="48" viewBox="0 0 48 48" fill="none" xmlns="http://www.w3.org/2000/svg">
<g clip-path="url(#clip0_24_305)">
<path d="M45 0H3C1.34315 0 0 1.34315 0 3V45C0 46.6569 1.34315 48 3 48H45C46.6569 48 48 46.6569 48 45V3C48 1.34315 46.6569 0 45 0Z" fill="white"/>
<path d="M20.12 39.35V35.77L12.57 31.52V28.74" stroke="#313131" stroke-width="0.75" stroke-miterlimit="10"/>
<path d="M22.21 39.35V35.77L25.99 31.52V28.74" stroke="#313131" stroke-width="0.75" stroke-miterlimit="10"/>
<path d="M26.6 39.35V35.77L37.72 31.52V28.74" stroke="#313131" stroke-width="0.75" stroke-miterlimit="10"/>
<path d="M3.40997 39.35H44.6V45.31H3.40997V39.35Z" fill="#313131"/>
<path d="M12.57 28.73C15.7512 28.73 18.33 26.1512 18.33 22.97C18.33 19.7888 15.7512 17.21 12.57 17.21C9.38884 17.21 6.81 19.7888 6.81 22.97C6.81 26.1512 9.38884 28.73 12.57 28.73Z" fill="#2A74A5"/>
<path opacity="0.7" d="M12.5699 17.21C14.641 17.21 16.3199 15.5311 16.3199 13.46C16.3199 11.3889 14.641 9.70999 12.5699 9.70999C10.4989 9.70999 8.81995 11.3889 8.81995 13.46C8.81995 15.5311 10.4989 17.21 12.5699 17.21Z" fill="#2A74A5"/>
<path opacity="0.4" d="M12.57 9.71999C13.8844 9.71999 14.95 8.65443 14.95 7.33999C14.95 6.02555 13.8844 4.95999 12.57 4.95999C11.2556 4.95999 10.19 6.02555 10.19 7.33999C10.19 8.65443 11.2556 9.71999 12.57 9.71999Z" fill="#2A74A5"/>
<path opacity="0.25" d="M12.57 4.96C13.3873 4.96 14.05 4.29738 14.05 3.48C14.05 2.66262 13.3873 2 12.57 2C11.7526 2 11.09 2.66262 11.09 3.48C11.09 4.29738 11.7526 4.96 12.57 4.96Z" fill="#2A74A5"/>
<path opacity="0.25" d="M25.9899 13.33C26.8073 13.33 27.4699 12.6674 27.4699 11.85C27.4699 11.0326 26.8073 10.37 25.9899 10.37C25.1726 10.37 24.5099 11.0326 24.5099 11.85C24.5099 12.6674 25.1726 13.33 25.9899 13.33Z" fill="#EE5251"/>
<path opacity="0.15" d="M25.9899 10.37C26.8073 10.37 27.4699 9.70739 27.4699 8.89C27.4699 8.07262 26.8073 7.41 25.9899 7.41C25.1726 7.41 24.5099 8.07262 24.5099 8.89C24.5099 9.70739 25.1726 10.37 25.9899 10.37Z" fill="#EE5251"/>
<path d="M25.99 28.74C28.0555 28.74 29.73 27.0656 29.73 25C29.73 22.9345 28.0555 21.26 25.99 21.26C23.9245 21.26 22.25 22.9345 22.25 25C22.25 27.0656 23.9245 28.74 25.99 28.74Z" fill="#EE5251"/>
<path opacity="0.7" d="M25.99 21.27C27.332 21.27 28.42 20.1821 28.42 18.84C28.42 17.498 27.332 16.41 25.99 16.41C24.6479 16.41 23.56 17.498 23.56 18.84C23.56 20.1821 24.6479 21.27 25.99 21.27Z" fill="#EE5251"/>
<path opacity="0.4" d="M25.99 16.41C26.8405 16.41 27.53 15.7205 27.53 14.87C27.53 14.0195 26.8405 13.33 25.99 13.33C25.1394 13.33 24.45 14.0195 24.45 14.87C24.45 15.7205 25.1394 16.41 25.99 16.41Z" fill="#EE5251"/>
<path d="M37.72 28.96C38.5705 28.96 39.26 28.2705 39.26 27.42C39.26 26.5695 38.5705 25.88 37.72 25.88C36.8695 25.88 36.18 26.5695 36.18 27.42C36.18 28.2705 36.8695 28.96 37.72 28.96Z" fill="#FCD242"/>
<path opacity="0.7" d="M37.72 25.88C38.5705 25.88 39.26 25.1905 39.26 24.34C39.26 23.4895 38.5705 22.8 37.72 22.8C36.8695 22.8 36.18 23.4895 36.18 24.34C36.18 25.1905 36.8695 25.88 37.72 25.88Z" fill="#FCD242"/>
<path opacity="0.25" d="M37.72 22.8C38.5705 22.8 39.26 22.1105 39.26 21.26C39.26 20.4095 38.5705 19.72 37.72 19.72C36.8695 19.72 36.18 20.4095 36.18 21.26C36.18 22.1105 36.8695 22.8 37.72 22.8Z" fill="#FCD242"/>
</g>
<defs>
<clipPath id="clip0_24_305">
<rect width="48" height="48" fill="white"/>
</clipPath>
</defs>
</svg>
