<svg width="48" height="48" viewBox="0 0 48 48" fill="none" xmlns="http://www.w3.org/2000/svg">
<g clip-path="url(#clip0_24_311)">
<path d="M45 0H3C1.34315 0 0 1.34315 0 3V45C0 46.6569 1.34315 48 3 48H45C46.6569 48 48 46.6569 48 45V3C48 1.34315 46.6569 0 45 0Z" fill="white"/>
<path d="M41.9675 10.0375C41.4342 6.66667 33.8192 4 24.5 4C15.1808 4 7.56583 6.66667 7.0325 10.0375H7V37.9625H7.0325C7.56583 41.3292 15.1817 44 24.5 44C33.8183 44 41.4342 41.3292 41.9675 37.9625H42V10.0375H41.9675Z" fill="#424A60"/>
<path d="M24.5 34.945C14.8333 34.945 7 32.0725 7 28.5283V37.9625H7.0325C7.56583 41.3292 15.1808 44 24.5 44C33.8192 44 41.4342 41.3292 41.9675 37.9625H42V28.5283C42 32.0708 34.1667 34.945 24.5 34.945Z" fill="#60023E"/>
<path d="M7 28.1508V28.5283C7.00097 28.4018 7.01184 28.2756 7.0325 28.1508H7ZM41.9675 28.1508C41.9882 28.2756 41.999 28.4018 42 28.5283V28.1508H41.9675Z" fill="#424A60"/>
<path d="M24.5 25.8883C14.8333 25.8883 7 23.0158 7 19.4717V28.9058H7.0325C7.56583 32.2725 15.1808 34.9433 24.5 34.9433C33.8192 34.9433 41.4342 32.2725 41.9675 28.9058H42V19.4717C42 23.0142 34.1667 25.8883 24.5 25.8883Z" fill="#8B0053"/>
<path d="M7 19.0942V19.4717C7.00097 19.3452 7.01184 19.219 7.0325 19.0942H7ZM41.9675 19.0942C41.9882 19.219 41.999 19.3452 42 19.4717V19.0942H41.9675Z" fill="#556080"/>
<path d="M24.5 16.83C34.165 16.83 42 13.9579 42 10.415C42 6.87209 34.165 4 24.5 4C14.835 4 7 6.87209 7 10.415C7 13.9579 14.835 16.83 24.5 16.83Z" fill="#FFE8F0"/>
<path d="M24.5 16.8317C14.8333 16.8317 7 13.9592 7 10.415V19.8492H7.0325C7.56583 23.2158 15.1808 25.8867 24.5 25.8867C33.8192 25.8867 41.4342 23.2158 41.9675 19.8492H42V10.415C42 13.9575 34.1667 16.8317 24.5 16.8317Z" fill="#F58EB3"/>
<path d="M7 10.0375V10.415C7.00097 10.2885 7.01184 10.1623 7.0325 10.0375H7ZM41.9675 10.0375C41.9882 10.1623 41.999 10.2885 42 10.415V10.0375H41.9675Z" fill="#7383BF"/>
</g>
<defs>
<clipPath id="clip0_24_311">
<rect width="48" height="48" fill="white"/>
</clipPath>
</defs>
</svg>
