<svg width="48" height="48" viewBox="0 0 48 48" fill="none" xmlns="http://www.w3.org/2000/svg">
<g clip-path="url(#clip0_24_308)">
<path d="M45 0H3C1.34315 0 0 1.34315 0 3V45C0 46.6569 1.34315 48 3 48H45C46.6569 48 48 46.6569 48 45V3C48 1.34315 46.6569 0 45 0Z" fill="white"/>
<path d="M36.57 29.5C36.57 31.1113 36.2526 32.7069 35.636 34.1955C35.0193 35.6842 34.1155 37.0368 32.9762 38.1762C31.8368 39.3156 30.4842 40.2194 28.9955 40.836C27.5068 41.4526 25.9113 41.77 24.3 41.77C22.6886 41.77 21.0931 41.4526 19.6044 40.836C18.1158 40.2194 16.7631 39.3156 15.6238 38.1762C14.4844 37.0368 13.5806 35.6842 12.964 34.1955C12.3473 32.7069 12.03 31.1113 12.03 29.5V29.44C13.9036 30.3857 15.9881 30.8362 18.085 30.7487C20.182 30.6611 22.2216 30.0385 24.01 28.94C25.8931 30.0987 28.0543 30.7271 30.2652 30.7588C32.476 30.7905 34.6544 30.2243 36.57 29.12V29.49V29.5Z" fill="#EE5251" stroke="#313131" stroke-miterlimit="10"/>
<path d="M42.7 18.5C42.7017 20.6553 42.135 22.7729 41.0569 24.6392C39.9789 26.5055 38.4278 28.0546 36.56 29.13C36.4923 26.9258 35.8327 24.7803 34.6503 22.9188C33.468 21.0573 31.8064 19.5482 29.84 18.55V18.49C29.8404 16.393 29.3039 14.3307 28.2817 12.4998C27.2594 10.6688 25.7854 9.12999 24 8.03C25.8592 6.88605 27.9899 6.25881 30.1724 6.21297C32.3548 6.16714 34.51 6.70437 36.4156 7.76925C38.3211 8.83413 39.9081 10.3881 41.0128 12.2709C42.1175 14.1537 42.7 16.2971 42.7 18.48V18.5Z" fill="#FCD242" stroke="#313131" stroke-miterlimit="10"/>
<path d="M36.56 29.13C34.6444 30.2343 32.4661 30.8005 30.2552 30.7688C28.0444 30.7371 25.8832 30.1087 24 28.95C25.7782 27.8569 27.2479 26.328 28.2699 24.508C29.2918 22.688 29.8323 20.6373 29.84 18.55C31.8068 19.5478 33.4686 21.0567 34.651 22.9184C35.8335 24.78 36.4929 26.9256 36.56 29.13Z" fill="#EE5251" fill-opacity="0.7" stroke="#313131" stroke-miterlimit="10"/>
<path d="M18.16 18.5V18.87C16.2999 19.9416 14.7537 21.4828 13.6762 23.3395C12.5987 25.1962 12.0276 27.3033 12.02 29.45C9.55989 28.202 7.59194 26.1616 6.43358 23.658C5.27522 21.1544 4.994 18.3337 5.63528 15.6507C6.27657 12.9677 7.80296 10.5789 9.96824 8.86977C12.1335 7.16061 14.8114 6.23068 17.57 6.23C19.8414 6.22336 22.0691 6.8539 24 8.05C22.2132 9.14842 20.738 10.6868 19.7155 12.5182C18.693 14.3495 18.1575 16.4126 18.16 18.51V18.5Z" fill="#2A74A5" stroke="#313131" stroke-miterlimit="10"/>
<path d="M24 28.95C22.2117 30.0485 20.172 30.6711 18.0751 30.7586C15.9781 30.8462 13.8937 30.3957 12.02 29.45C12.031 27.304 12.6036 25.1982 13.6807 23.3421C14.7579 21.486 16.3022 19.9442 18.16 18.87C18.2208 20.9028 18.7864 22.8885 19.8059 24.6482C20.8254 26.4078 22.2668 27.8862 24 28.95Z" fill="#2A74A5" fill-opacity="0.7" stroke="#313131" stroke-miterlimit="10"/>
<path d="M29.84 18.5V18.56C28.0192 17.6408 25.9984 17.1887 23.9595 17.2446C21.9207 17.3004 19.9277 17.8624 18.16 18.88V18.51C18.1596 16.413 18.696 14.3508 19.7183 12.5198C20.7406 10.6888 22.2146 9.15001 24 8.05002C25.7868 9.14843 27.262 10.6869 28.2844 12.5182C29.3069 14.3496 29.8425 16.4126 29.84 18.51V18.5Z" fill="#FCD242" fill-opacity="0.7" stroke="#313131" stroke-miterlimit="10"/>
<path d="M29.84 18.55C29.8323 20.6373 29.2918 22.688 28.2698 24.508C27.2478 26.328 25.7782 27.8569 24 28.95C22.2676 27.8852 20.8269 26.4067 19.8075 24.6472C18.7882 22.8877 18.222 20.9025 18.16 18.87C19.9277 17.8524 21.9207 17.2904 23.9595 17.2345C25.9984 17.1787 28.0192 17.6307 29.84 18.55Z" fill="#00BA8B" fill-opacity="0.45" stroke="#313131" stroke-miterlimit="10"/>
</g>
<defs>
<clipPath id="clip0_24_308">
<rect width="48" height="48" fill="white"/>
</clipPath>
</defs>
</svg>
